<?xml version="1.0" encoding="utf-8" ?><svg xmlns="http://www.w3.org/2000/svg" xmlns:xlink="http://www.w3.org/1999/xlink" width="1024" height="1024" viewBox="0 0 1024 1024"><path fill="#EE9E54" d="M421.597 286.471C432.526 286.506 445.607 285.921 456.606 286.634C457.27 286.677 458.641 287.605 459.236 288.039C469.581 297.124 479.772 308.303 489.816 317.948C496.023 323.91 502.788 330.772 508.692 337.068C509.58 338.015 509.987 339.29 510.166 340.568C510.405 347.817 510.698 367.342 510.175 374.235C508.366 377.037 507.622 378.127 505.142 380.488C476.629 409.608 446.722 438.095 417.939 467.051C406.365 478.69 394.729 490.265 383.029 501.776C379.442 505.321 369.286 515.774 365.538 518.316L361.859 519.683C356.136 521.769 352.233 524.828 347.473 528.455C341.33 528.742 327.367 529.884 322.769 526.416L285.382 489.134C282.238 485.985 272.181 475.29 269.465 473.033C267.752 468.751 268.11 443.481 268.04 437.319C270.199 434.446 272.439 432.359 274.989 429.84C296.628 406.958 321.741 383.684 344.216 361.411C367.659 338.178 391.599 313.624 415.649 291.174C418.049 288.963 418.938 288.285 421.597 286.471Z"/><path fill="#F6BC77" d="M415.649 291.174C420.281 294.413 434.139 309.661 436.332 310.081L436.259 310.432C432.461 313.396 424.582 321.68 420.594 325.618L390.281 355.554L344.648 400.151C328.163 416.552 311.458 432.73 294.539 448.682C289.128 443.04 280.836 434.972 274.989 429.84C296.628 406.958 321.741 383.684 344.216 361.411C367.659 338.178 391.599 313.624 415.649 291.174Z"/><path fill="#E57946" d="M487.542 362.68C492.265 366.172 501.204 375.604 505.015 380.36C505.057 380.403 505.1 380.445 505.142 380.488C476.629 409.608 446.722 438.095 417.939 467.051C406.365 478.69 394.729 490.265 383.029 501.776C379.442 505.321 369.286 515.774 365.538 518.316C359.859 513.342 354.075 506.895 348.308 501.521C368.369 481.975 388.297 461.458 408.166 441.628L487.542 362.68Z"/><path fill="#BF543B" d="M274.989 429.84C280.836 434.972 289.128 443.04 294.539 448.682L294.464 448.967C310.059 464.799 326.202 480.21 342.026 495.817C343.931 497.696 345.999 499.883 348.03 501.596L348.308 501.521C354.075 506.895 359.859 513.342 365.538 518.316L361.859 519.683C356.136 521.769 352.233 524.828 347.473 528.455C341.33 528.742 327.367 529.884 322.769 526.416L285.382 489.134C282.238 485.985 272.181 475.29 269.465 473.033C267.752 468.751 268.11 443.481 268.04 437.319C270.199 434.446 272.439 432.359 274.989 429.84Z"/><path fill="#EE9E54" d="M274.989 429.84C280.836 434.972 289.128 443.04 294.539 448.682L294.464 448.967C287.236 455.636 276.623 467.441 269.465 473.033C267.752 468.751 268.11 443.481 268.04 437.319C270.199 434.446 272.439 432.359 274.989 429.84Z"/><path fill="#DD6E43" d="M348.03 501.596L348.308 501.521C354.075 506.895 359.859 513.342 365.538 518.316L361.859 519.683C356.136 521.769 352.233 524.828 347.473 528.455C341.33 528.742 327.367 529.884 322.769 526.416C326.061 524.328 346.598 504.261 348.03 501.596Z"/><path fill="#F6BC77" d="M421.597 286.471C432.526 286.506 445.607 285.921 456.606 286.634C457.27 286.677 458.641 287.605 459.236 288.039C469.581 297.124 479.772 308.303 489.816 317.948C496.023 323.91 502.788 330.772 508.692 337.068C509.58 338.015 509.987 339.29 510.166 340.568C510.405 347.817 510.698 367.342 510.175 374.235C508.366 377.037 507.622 378.127 505.142 380.488C505.1 380.445 505.057 380.403 505.015 380.36C501.204 375.604 492.265 366.172 487.542 362.68L487.73 362.465C485.841 359.485 476.892 351.396 474.137 348.532C462.28 336.207 447.054 323.454 436.259 310.432L436.332 310.081C434.139 309.661 420.281 294.413 415.649 291.174C418.049 288.963 418.938 288.285 421.597 286.471Z"/><path fill="#F8D09A" d="M421.597 286.471C432.526 286.506 445.607 285.921 456.606 286.634C457.27 286.677 458.641 287.605 459.236 288.039C451.903 295.884 443.756 302.605 436.332 310.081C434.139 309.661 420.281 294.413 415.649 291.174C418.049 288.963 418.938 288.285 421.597 286.471Z"/><path fill="#EE9E54" d="M487.73 362.465C495.382 355.706 502.382 346.849 510.166 340.568C510.405 347.817 510.698 367.342 510.175 374.235C508.366 377.037 507.622 378.127 505.142 380.488C505.1 380.445 505.057 380.403 505.015 380.36C501.204 375.604 492.265 366.172 487.542 362.68L487.73 362.465Z"/><path fill="#EE9E54" d="M354.16 733.044C349.26 728.067 345.064 722.671 343.188 715.783C335.174 686.371 356.827 671.5 375.324 653.19L424.827 604.373L517.191 512.901C522.692 507.459 560.895 468.492 563.85 467.637C568.552 469.504 587.432 489.733 592.281 494.655C596.299 499.925 618.179 518.178 617.907 522.629C613.952 527.989 596.812 544.468 591.433 549.929C570.671 571.143 549.773 592.223 528.74 613.168L458.444 683.758C446.533 696.075 434.445 708.222 422.186 720.193C416.967 725.294 410.007 732.409 404.582 737.02C399.947 740.962 394.324 743.565 388.318 744.547C375.933 746.486 362.949 741.874 354.16 733.044Z"/><path fill="#DD6E43" d="M592.281 494.655C596.299 499.925 618.179 518.178 617.907 522.629C613.952 527.989 596.812 544.468 591.433 549.929C570.671 571.143 549.773 592.223 528.74 613.168L458.444 683.758C446.533 696.075 434.445 708.222 422.186 720.193C416.967 725.294 410.007 732.409 404.582 737.02C399.947 740.962 394.324 743.565 388.318 744.547C375.933 746.486 362.949 741.874 354.16 733.044C371.69 716.01 389.827 696.967 407.249 679.515L528.131 558.64L569.147 517.613C576.462 510.286 584.736 501.602 592.281 494.655Z"/><path fill="#DD6E43" d="M762.538 309.335L763.653 309.211C764.678 311.922 751.494 354.731 749.39 362.056C741.095 391.934 732.576 421.75 723.833 451.5L713.797 486.781C712.235 492.465 709.801 504.931 705.955 508.916C701.079 510.843 656.991 513.897 649.479 514.035C642.913 508.825 634.297 499.937 628.182 493.86C630.302 491.293 637.739 471.843 639.459 467.531C636.355 462.513 628.27 456.443 624.268 451.11C618.96 445.958 609.153 436.844 604.74 431.136C605.843 426.658 605.139 408.193 604.934 402.704C599.21 395.94 586.024 383.942 579.104 376.727C583.702 373.478 592.848 370.621 598.478 368.534L626.855 358.086L754.049 311.549C757.359 310.379 759.035 309.658 762.538 309.335Z"/><path fill="#F6BC77" d="M754.049 311.549C757.359 310.379 759.035 309.658 762.538 309.335L762.649 310.325L760.979 311.699C754.362 318.054 747.728 323.92 741.22 330.498C733.875 337.922 726.938 345.54 719.7 353.033L668.632 405.516C659.918 414.615 651.101 423.615 642.183 432.514C637.35 437.351 628.069 446.116 624.268 451.11C618.96 445.958 609.153 436.844 604.74 431.136C605.843 426.658 605.139 408.193 604.934 402.704C599.21 395.94 586.024 383.942 579.104 376.727C583.702 373.478 592.848 370.621 598.478 368.534L626.855 358.086L754.049 311.549Z"/><path fill="#F8D09A" d="M579.104 376.727C583.702 373.478 592.848 370.621 598.478 368.534L626.855 358.086L754.049 311.549L755.147 312.404C754.859 314.368 752.879 315.287 751.402 316.886C736.723 325.976 721.404 334.126 706.489 342.918C689.495 352.934 672.511 362.983 655.541 373.042C643.86 380.057 632.134 386.996 620.364 393.86C617.34 395.64 607.348 401.793 604.934 402.704C599.21 395.94 586.024 383.942 579.104 376.727Z"/><path fill="#F6BC77" d="M754.049 311.549C757.359 310.379 759.035 309.658 762.538 309.335L762.649 310.325L760.979 311.699C756.975 313.3 753.383 316.37 751.402 316.886C752.879 315.287 754.859 314.368 755.147 312.404L754.049 311.549Z"/><path fill="#EE9E54" d="M760.979 311.699L762.649 310.325C761.973 312.543 755.289 321.948 753.236 325.472L695.896 422.102L678.67 451.527C676.574 455.117 671.923 463.554 669.58 466.532C663.25 466.599 643.367 468.666 639.459 467.531C636.355 462.513 628.27 456.443 624.268 451.11C628.069 446.116 637.35 437.351 642.183 432.514C651.101 423.615 659.918 414.615 668.632 405.516L719.7 353.033C726.938 345.54 733.875 337.922 741.22 330.498C747.728 323.92 754.362 318.054 760.979 311.699Z"/><path fill="#E57946" d="M669.58 466.532C674.607 472.598 679.836 478.79 684.965 484.519C688.726 488.721 703.735 504.686 705.955 508.916C701.079 510.843 656.991 513.897 649.479 514.035C642.913 508.825 634.297 499.937 628.182 493.86C630.302 491.293 637.739 471.843 639.459 467.531C643.367 468.666 663.25 466.599 669.58 466.532Z"/><path fill="#EE9E54" d="M572.641 604.231C577.877 598.966 598.725 577.275 603.39 574.338C606.133 576.097 608.524 578.277 610.836 580.561C620.674 590.28 630.269 600.243 640.13 609.937C655.844 625.11 671.407 640.437 686.817 655.918C698.075 667.105 712.215 677.804 715.747 693.864C718.069 704.308 716.07 715.246 710.205 724.194C707.937 727.723 705.444 730.489 702.389 733.348C691.666 742.221 680.7 747.306 666.465 744.203C660.447 742.904 654.806 740.244 649.975 736.427C642.023 730.146 630.993 718.384 623.503 710.931L581.945 669.837L560.54 648.499C556.579 644.556 549.406 637.909 546.556 633.4C546.869 628.6 567.915 608.977 572.641 604.231Z"/><path fill="#DD6E43" d="M572.641 604.231C581.696 613.651 592.432 623.751 601.806 633.097L658.855 689.857C672.757 703.486 689.157 719.249 702.389 733.348C691.666 742.221 680.7 747.306 666.465 744.203C660.447 742.904 654.806 740.244 649.975 736.427C642.023 730.146 630.993 718.384 623.503 710.931L581.945 669.837L560.54 648.499C556.579 644.556 549.406 637.909 546.556 633.4C546.869 628.6 567.915 608.977 572.641 604.231Z"/><path fill="#65A88F" d="M691.558 536.777C696 536.496 699.343 536.412 703.791 536.493C714.701 542.627 711.084 551.842 711.339 562.977C718.062 572.097 722.103 572.599 732.831 572.162C747.951 571.547 768.171 569.664 767.197 591.229C767.037 594.773 766.184 597.514 763.64 600.17C756.112 608.032 742.713 606.253 732.551 606.249L698.375 606.229C690.878 606.275 681.367 606.573 674.066 605.962C667.732 601.529 626.277 561.021 622.341 554.661C625.146 550.773 634.872 541.736 638.763 538.581C656.348 537.637 673.95 537.036 691.558 536.777Z"/><path fill="#EE9E54" d="M444.482 475.271C449.468 470.307 468.985 449.833 473.339 447.768C479.02 447.818 500.92 472.818 506.55 477.483C507.763 478.487 510.485 481.687 510.771 483.339C508.823 486.349 503.223 491.561 500.413 494.355L482.194 512.416C479.196 515.232 460.23 534.852 458.158 534.71C453.614 534.399 426.442 505.28 420.948 500.132C424.726 494.052 439.012 480.687 444.482 475.271Z"/><path fill="#DD6E43" d="M420.948 500.132C424.726 494.052 439.012 480.687 444.482 475.271L482.194 512.416C479.196 515.232 460.23 534.852 458.158 534.71C453.614 534.399 426.442 505.28 420.948 500.132Z"/><path fill="#65A88F" d="M401.926 518.879C406.583 520.194 437.609 550.948 438.382 555.158C435.555 558.617 427.855 565.433 424.245 569.056C416.042 577.349 407.768 585.572 399.425 593.724C396.054 597.028 390.012 603.275 386.416 605.881C375.991 607.37 361.148 608.467 353.703 599.743C350.902 596.486 349.57 592.217 350.021 587.945C350.685 581.343 354.445 577.313 359.183 573.286C365.056 572.16 368.374 572.916 373.706 568.383C378.924 563.947 377.429 551.08 377.528 543.617C380.519 538.535 396.966 521.927 401.926 518.879Z"/><path fill="#65A88F" d="M539.886 341.02C547.275 340.626 552.243 345.702 560.044 346.089C566.469 346.408 567.465 342.324 572.915 342.296C579.468 346.83 554.027 366.536 550.289 372.682C549.435 393.954 550.312 421.864 550.351 443.629C547.646 448.511 536.346 458.906 531.974 463.149C531.182 463.309 530.355 463.425 529.547 463.271C525.92 462.58 496.287 432.313 493.482 427.754C496.357 423.345 503.218 417.605 507.134 413.588C515.843 404.656 525.909 395.645 534.256 386.492C534.198 373.348 533.883 359.446 534.511 346.423C536.29 343.566 536.946 342.641 539.886 341.02Z"/><path fill="#65A88F" d="M308.283 572.235C313.497 572.231 316.711 572.656 320.807 576.256C328.189 582.745 328.239 595.14 321.151 601.776C318.893 603.88 316.109 605.334 313.092 605.983C308.371 606.983 282.233 606.36 275.875 606.294C260.299 606.915 250.829 589.082 262.066 577.334C264.029 575.282 266.413 573.937 268.845 572.507C281.713 572.775 295.396 572.454 308.283 572.235Z"/><path fill="#65A88F" d="M526.64 651.76C531.983 655.235 540.531 664.633 545.293 669.595C550.444 674.975 555.707 680.246 561.079 685.405C563.823 688.041 567.248 691.147 569.58 694.052C565.718 694.687 548.725 694.028 543.557 694.015C523.913 693.963 504.287 694.386 484.665 694.024C489.619 687.764 498.196 679.897 504.045 674.051C511.272 666.826 519.127 658.55 526.64 651.76Z"/><path fill="#EE9E54" d="M579.104 376.727C586.024 383.942 599.21 395.94 604.934 402.704C605.139 408.193 605.843 426.658 604.74 431.136C602.371 432.184 591.346 450.928 588.667 454.464C584.746 450.591 577.803 443.998 574.679 439.831C574.214 430.722 574.647 418.822 574.55 409.496C574.468 401.584 574.173 388.627 574.865 381.232C575.941 379.852 577.835 378.027 579.104 376.727Z"/><path fill="#DD6E43" d="M588.667 454.464C591.346 450.928 602.371 432.184 604.74 431.136C609.153 436.844 618.96 445.958 624.268 451.11C628.27 456.443 636.355 462.513 639.459 467.531C637.739 471.843 630.302 491.293 628.182 493.86L588.667 454.464Z"/><path fill="#65A88F" d="M556.319 275.596C572.886 274.188 574.855 286.014 574.272 299.066C573.763 310.48 574.255 314.004 562.837 319.181C559.251 319.733 556.498 319.294 553.119 317.855C549.315 316.262 546.361 313.137 544.986 309.249C543.334 304.458 543.175 288.175 546.223 283.346C549.087 278.811 551.364 277.06 556.319 275.596Z"/><path fill="#EE9E54" d="M315.392 319.072C318.596 318.644 321.379 318.606 324.003 320.764C326.502 322.82 333.602 329.256 333.589 332.652C333.574 336.308 310.677 356.969 306.658 361.138C297.387 368.301 288.406 350.196 290.813 344.754C293.266 339.21 310.602 322.343 315.392 319.072Z"/></svg>